<svg width="200" height="200" xmlns="http://www.w3.org/2000/svg">
  <defs>
    <linearGradient id="grad1" x1="0%" y1="0%" x2="100%" y2="100%">
      <stop offset="0%" style="stop-color:#4CAF50;stop-opacity:1" />
      <stop offset="100%" style="stop-color:#2196F3;stop-opacity:1" />
    </linearGradient>
  </defs>
  
  <!-- Background circle -->
  <circle cx="100" cy="100" r="90" fill="url(#grad1)" opacity="0.1"/>
  
  <!-- Brain outline -->
  <path d="M60 80 Q50 60 70 50 Q90 40 110 50 Q130 40 150 50 Q170 60 160 80 Q170 100 160 120 Q170 140 150 150 Q130 160 110 150 Q90 160 70 150 Q50 140 60 120 Q50 100 60 80 Z" 
        fill="none" stroke="#4CAF50" stroke-width="3"/>
  
  <!-- Brain details -->
  <path d="M70 70 Q80 60 90 70 Q100 60 110 70" fill="none" stroke="#4CAF50" stroke-width="2"/>
  <path d="M70 90 Q80 80 90 90 Q100 80 110 90" fill="none" stroke="#4CAF50" stroke-width="2"/>
  <path d="M70 110 Q80 100 90 110 Q100 100 110 110" fill="none" stroke="#4CAF50" stroke-width="2"/>
  <path d="M110 70 Q120 60 130 70 Q140 60 150 70" fill="none" stroke="#4CAF50" stroke-width="2"/>
  <path d="M110 90 Q120 80 130 90 Q140 80 150 90" fill="none" stroke="#4CAF50" stroke-width="2"/>
  <path d="M110 110 Q120 100 130 110 Q140 100 150 110" fill="none" stroke="#4CAF50" stroke-width="2"/>
  
  <!-- Center dot -->
  <circle cx="100" cy="100" r="5" fill="#2196F3"/>
  
  <!-- Text -->
  <text x="100" y="170" text-anchor="middle" font-family="Arial, sans-serif" font-size="14" fill="#4CAF50">
    MicroLearning
  </text>
  <text x="100" y="185" text-anchor="middle" font-family="Arial, sans-serif" font-size="12" fill="#666">
    Bot
  </text>
</svg>
